<svg width="360" height="50" viewBox="0 0 360 50" fill="none" xmlns="http://www.w3.org/2000/svg">
<rect width="360" height="50" rx="25" fill="#58C084"/>
<path d="M145.954 27.634H138.934L137.422 31H136.036L141.796 18.4H143.11L148.87 31H147.466L145.954 27.634ZM145.468 26.554L142.444 19.786L139.42 26.554H145.468ZM159.236 17.644V31H158.012V29.128C157.628 29.764 157.118 30.25 156.482 30.586C155.858 30.922 155.15 31.09 154.358 31.09C153.47 31.09 152.666 30.886 151.946 30.478C151.226 30.07 150.662 29.5 150.254 28.768C149.846 28.036 149.642 27.202 149.642 26.266C149.642 25.33 149.846 24.496 150.254 23.764C150.662 23.032 151.226 22.468 151.946 22.072C152.666 21.664 153.47 21.46 154.358 21.46C155.126 21.46 155.816 21.622 156.428 21.946C157.052 22.258 157.562 22.72 157.958 23.332V17.644H159.236ZM154.466 29.956C155.126 29.956 155.72 29.806 156.248 29.506C156.788 29.194 157.208 28.756 157.508 28.192C157.82 27.628 157.976 26.986 157.976 26.266C157.976 25.546 157.82 24.904 157.508 24.34C157.208 23.776 156.788 23.344 156.248 23.044C155.72 22.732 155.126 22.576 154.466 22.576C153.794 22.576 153.188 22.732 152.648 23.044C152.12 23.344 151.7 23.776 151.388 24.34C151.088 24.904 150.938 25.546 150.938 26.266C150.938 26.986 151.088 27.628 151.388 28.192C151.7 28.756 152.12 29.194 152.648 29.506C153.188 29.806 153.794 29.956 154.466 29.956ZM162.796 21.532H164.074V31H162.796V21.532ZM163.444 19.462C163.18 19.462 162.958 19.372 162.778 19.192C162.598 19.012 162.508 18.796 162.508 18.544C162.508 18.304 162.598 18.094 162.778 17.914C162.958 17.734 163.18 17.644 163.444 17.644C163.708 17.644 163.93 17.734 164.11 17.914C164.29 18.082 164.38 18.286 164.38 18.526C164.38 18.79 164.29 19.012 164.11 19.192C163.93 19.372 163.708 19.462 163.444 19.462ZM171.554 31.09C170.618 31.09 169.778 30.886 169.034 30.478C168.302 30.07 167.726 29.5 167.306 28.768C166.886 28.024 166.676 27.19 166.676 26.266C166.676 25.342 166.886 24.514 167.306 23.782C167.726 23.05 168.302 22.48 169.034 22.072C169.778 21.664 170.618 21.46 171.554 21.46C172.37 21.46 173.096 21.622 173.732 21.946C174.38 22.258 174.89 22.72 175.262 23.332L174.308 23.98C173.996 23.512 173.6 23.164 173.12 22.936C172.64 22.696 172.118 22.576 171.554 22.576C170.87 22.576 170.252 22.732 169.7 23.044C169.16 23.344 168.734 23.776 168.422 24.34C168.122 24.904 167.972 25.546 167.972 26.266C167.972 26.998 168.122 27.646 168.422 28.21C168.734 28.762 169.16 29.194 169.7 29.506C170.252 29.806 170.87 29.956 171.554 29.956C172.118 29.956 172.64 29.842 173.12 29.614C173.6 29.386 173.996 29.038 174.308 28.57L175.262 29.218C174.89 29.83 174.38 30.298 173.732 30.622C173.084 30.934 172.358 31.09 171.554 31.09ZM177.772 21.532H179.05V31H177.772V21.532ZM178.42 19.462C178.156 19.462 177.934 19.372 177.754 19.192C177.574 19.012 177.484 18.796 177.484 18.544C177.484 18.304 177.574 18.094 177.754 17.914C177.934 17.734 178.156 17.644 178.42 17.644C178.684 17.644 178.906 17.734 179.086 17.914C179.266 18.082 179.356 18.286 179.356 18.526C179.356 18.79 179.266 19.012 179.086 19.192C178.906 19.372 178.684 19.462 178.42 19.462ZM186.476 31.09C185.564 31.09 184.742 30.886 184.01 30.478C183.278 30.058 182.702 29.482 182.282 28.75C181.862 28.018 181.652 27.19 181.652 26.266C181.652 25.342 181.862 24.514 182.282 23.782C182.702 23.05 183.278 22.48 184.01 22.072C184.742 21.664 185.564 21.46 186.476 21.46C187.388 21.46 188.21 21.664 188.942 22.072C189.674 22.48 190.244 23.05 190.652 23.782C191.072 24.514 191.282 25.342 191.282 26.266C191.282 27.19 191.072 28.018 190.652 28.75C190.244 29.482 189.674 30.058 188.942 30.478C188.21 30.886 187.388 31.09 186.476 31.09ZM186.476 29.956C187.148 29.956 187.748 29.806 188.276 29.506C188.816 29.194 189.236 28.756 189.536 28.192C189.836 27.628 189.986 26.986 189.986 26.266C189.986 25.546 189.836 24.904 189.536 24.34C189.236 23.776 188.816 23.344 188.276 23.044C187.748 22.732 187.148 22.576 186.476 22.576C185.804 22.576 185.198 22.732 184.658 23.044C184.13 23.344 183.71 23.776 183.398 24.34C183.098 24.904 182.948 25.546 182.948 26.266C182.948 26.986 183.098 27.628 183.398 28.192C183.71 28.756 184.13 29.194 184.658 29.506C185.198 29.806 185.804 29.956 186.476 29.956ZM198.715 21.46C199.903 21.46 200.845 21.808 201.541 22.504C202.249 23.188 202.603 24.19 202.603 25.51V31H201.325V25.636C201.325 24.652 201.079 23.902 200.587 23.386C200.095 22.87 199.393 22.612 198.481 22.612C197.461 22.612 196.651 22.918 196.051 23.53C195.463 24.13 195.169 24.964 195.169 26.032V31H193.891V21.532H195.115V23.278C195.463 22.702 195.943 22.258 196.555 21.946C197.179 21.622 197.899 21.46 198.715 21.46ZM209.385 21.46C210.621 21.46 211.569 21.772 212.229 22.396C212.889 23.008 213.219 23.92 213.219 25.132V31H211.995V29.524C211.707 30.016 211.281 30.4 210.717 30.676C210.165 30.952 209.505 31.09 208.737 31.09C207.681 31.09 206.841 30.838 206.217 30.334C205.593 29.83 205.281 29.164 205.281 28.336C205.281 27.532 205.569 26.884 206.145 26.392C206.733 25.9 207.663 25.654 208.935 25.654H211.941V25.078C211.941 24.262 211.713 23.644 211.257 23.224C210.801 22.792 210.135 22.576 209.259 22.576C208.659 22.576 208.083 22.678 207.531 22.882C206.979 23.074 206.505 23.344 206.109 23.692L205.533 22.738C206.013 22.33 206.589 22.018 207.261 21.802C207.933 21.574 208.641 21.46 209.385 21.46ZM208.935 30.082C209.655 30.082 210.273 29.92 210.789 29.596C211.305 29.26 211.689 28.78 211.941 28.156V26.608H208.971C207.351 26.608 206.541 27.172 206.541 28.3C206.541 28.852 206.751 29.29 207.171 29.614C207.591 29.926 208.179 30.082 208.935 30.082ZM217.914 23.386C218.214 22.75 218.658 22.27 219.246 21.946C219.846 21.622 220.584 21.46 221.46 21.46V22.702L221.154 22.684C220.158 22.684 219.378 22.99 218.814 23.602C218.25 24.214 217.968 25.072 217.968 26.176V31H216.69V21.532H217.914V23.386Z" fill="white"/>
<path d="M114 17C114.265 17 114.52 17.1054 114.707 17.2929C114.895 17.4804 115 17.7348 115 18V24H121C121.265 24 121.52 24.1054 121.707 24.2929C121.895 24.4804 122 24.7348 122 25C122 25.2652 121.895 25.5196 121.707 25.7071C121.52 25.8946 121.265 26 121 26H115V32C115 32.2652 114.895 32.5196 114.707 32.7071C114.52 32.8946 114.265 33 114 33C113.735 33 113.48 32.8946 113.293 32.7071C113.105 32.5196 113 32.2652 113 32V26H107C106.735 26 106.48 25.8946 106.293 25.7071C106.105 25.5196 106 25.2652 106 25C106 24.7348 106.105 24.4804 106.293 24.2929C106.48 24.1054 106.735 24 107 24H113V18C113 17.7348 113.105 17.4804 113.293 17.2929C113.48 17.1054 113.735 17 114 17V17Z" fill="white"/>
</svg>
