<svg width="34" height="34" viewBox="0 0 34 34" fill="none" xmlns="http://www.w3.org/2000/svg">
<circle cx="17" cy="17" r="17" fill="#2C4674"/>
<path opacity="0.8" d="M18.2403 6C13.4024 6 9.47997 9.88829 9.47997 14.685C9.47997 16.3893 9.97496 17.9792 10.8304 19.3206C10.8242 19.3233 10.818 19.3258 10.8117 19.3286L7 23.1071L10.2379 26.3175L14.1869 22.4015C14.1857 22.396 14.1841 22.3905 14.1829 22.3849C15.3959 23.0146 16.7763 23.3707 18.2403 23.3707C23.0783 23.3707 27 19.4818 27 14.685C26.9999 9.88829 23.0783 6 18.2403 6ZM18.2403 9.85823C20.9289 9.85823 23.1079 12.0193 23.1079 14.685C23.1079 17.3507 20.9289 19.5118 18.2403 19.5118C15.5517 19.5118 13.372 17.3507 13.372 14.685C13.372 12.0193 15.5517 9.85823 18.2403 9.85823Z" fill="white"/>
</svg>
