<svg width="34" height="34" viewBox="0 0 34 34" fill="none" xmlns="http://www.w3.org/2000/svg">
<circle cx="17" cy="17" r="17" fill="white"/>
<path d="M18.6434 16.998L23.6552 11.9978C23.8747 11.7784 23.998 11.4807 23.998 11.1703C23.998 10.8599 23.8747 10.5623 23.6552 10.3428C23.4358 10.1233 23.1381 10 22.8277 10C22.5173 10 22.2196 10.1233 22.0002 10.3428L17 15.3546L11.9998 10.3428C11.7804 10.1233 11.4827 10 11.1723 10C10.8619 10 10.5642 10.1233 10.3448 10.3428C10.1253 10.5623 10.002 10.8599 10.002 11.1703C10.002 11.4807 10.1253 11.7784 10.3448 11.9978L15.3566 16.998L10.3448 21.9982C10.2355 22.1065 10.1488 22.2354 10.0896 22.3775C10.0305 22.5195 10 22.6718 10 22.8257C10 22.9796 10.0305 23.1319 10.0896 23.274C10.1488 23.416 10.2355 23.5449 10.3448 23.6532C10.4531 23.7625 10.582 23.8492 10.7241 23.9084C10.8661 23.9675 11.0184 23.998 11.1723 23.998C11.3262 23.998 11.4785 23.9675 11.6205 23.9084C11.7626 23.8492 11.8915 23.7625 11.9998 23.6532L17 18.6414L22.0002 23.6532C22.1085 23.7625 22.2374 23.8492 22.3795 23.9084C22.5215 23.9675 22.6738 23.998 22.8277 23.998C22.9816 23.998 23.1339 23.9675 23.2759 23.9084C23.418 23.8492 23.5469 23.7625 23.6552 23.6532C23.7645 23.5449 23.8512 23.416 23.9104 23.274C23.9695 23.1319 24 22.9796 24 22.8257C24 22.6718 23.9695 22.5195 23.9104 22.3775C23.8512 22.2354 23.7645 22.1065 23.6552 21.9982L18.6434 16.998Z" fill="#2C4674"/>
</svg>
