<svg width="360" height="50" viewBox="0 0 360 50" fill="none" xmlns="http://www.w3.org/2000/svg">
<rect width="360" height="50" rx="25" fill="#58C084"/>
<path d="M158.926 24.7H160.204V29.506C159.616 30.022 158.92 30.418 158.116 30.694C157.312 30.97 156.466 31.108 155.578 31.108C154.318 31.108 153.184 30.832 152.176 30.28C151.168 29.728 150.376 28.966 149.8 27.994C149.224 27.01 148.936 25.912 148.936 24.7C148.936 23.488 149.224 22.396 149.8 21.424C150.376 20.44 151.168 19.672 152.176 19.12C153.184 18.568 154.324 18.292 155.596 18.292C156.556 18.292 157.438 18.448 158.242 18.76C159.046 19.06 159.724 19.51 160.276 20.11L159.448 20.956C158.452 19.972 157.186 19.48 155.65 19.48C154.63 19.48 153.706 19.708 152.878 20.164C152.062 20.608 151.42 21.232 150.952 22.036C150.484 22.828 150.25 23.716 150.25 24.7C150.25 25.684 150.484 26.572 150.952 27.364C151.42 28.156 152.062 28.78 152.878 29.236C153.694 29.692 154.612 29.92 155.632 29.92C156.928 29.92 158.026 29.596 158.926 28.948V24.7ZM172.236 21.532V31H171.012V29.272C170.676 29.848 170.214 30.298 169.626 30.622C169.038 30.934 168.366 31.09 167.61 31.09C166.374 31.09 165.396 30.748 164.676 30.064C163.968 29.368 163.614 28.354 163.614 27.022V21.532H164.892V26.896C164.892 27.892 165.138 28.648 165.63 29.164C166.122 29.68 166.824 29.938 167.736 29.938C168.732 29.938 169.518 29.638 170.094 29.038C170.67 28.426 170.958 27.58 170.958 26.5V21.532H172.236ZM179.127 21.46C180.363 21.46 181.311 21.772 181.971 22.396C182.631 23.008 182.961 23.92 182.961 25.132V31H181.737V29.524C181.449 30.016 181.023 30.4 180.459 30.676C179.907 30.952 179.247 31.09 178.479 31.09C177.423 31.09 176.583 30.838 175.959 30.334C175.335 29.83 175.023 29.164 175.023 28.336C175.023 27.532 175.311 26.884 175.887 26.392C176.475 25.9 177.405 25.654 178.677 25.654H181.683V25.078C181.683 24.262 181.455 23.644 180.999 23.224C180.543 22.792 179.877 22.576 179.001 22.576C178.401 22.576 177.825 22.678 177.273 22.882C176.721 23.074 176.247 23.344 175.851 23.692L175.275 22.738C175.755 22.33 176.331 22.018 177.003 21.802C177.675 21.574 178.383 21.46 179.127 21.46ZM178.677 30.082C179.397 30.082 180.015 29.92 180.531 29.596C181.047 29.26 181.431 28.78 181.683 28.156V26.608H178.713C177.093 26.608 176.283 27.172 176.283 28.3C176.283 28.852 176.493 29.29 176.913 29.614C177.333 29.926 177.921 30.082 178.677 30.082ZM187.656 23.386C187.956 22.75 188.4 22.27 188.988 21.946C189.588 21.622 190.326 21.46 191.202 21.46V22.702L190.896 22.684C189.9 22.684 189.12 22.99 188.556 23.602C187.992 24.214 187.71 25.072 187.71 26.176V31H186.432V21.532H187.656V23.386ZM202.068 17.644V31H200.844V29.128C200.46 29.764 199.95 30.25 199.314 30.586C198.69 30.922 197.982 31.09 197.19 31.09C196.302 31.09 195.498 30.886 194.778 30.478C194.058 30.07 193.494 29.5 193.086 28.768C192.678 28.036 192.474 27.202 192.474 26.266C192.474 25.33 192.678 24.496 193.086 23.764C193.494 23.032 194.058 22.468 194.778 22.072C195.498 21.664 196.302 21.46 197.19 21.46C197.958 21.46 198.648 21.622 199.26 21.946C199.884 22.258 200.394 22.72 200.79 23.332V17.644H202.068ZM197.298 29.956C197.958 29.956 198.552 29.806 199.08 29.506C199.62 29.194 200.04 28.756 200.34 28.192C200.652 27.628 200.808 26.986 200.808 26.266C200.808 25.546 200.652 24.904 200.34 24.34C200.04 23.776 199.62 23.344 199.08 23.044C198.552 22.732 197.958 22.576 197.298 22.576C196.626 22.576 196.02 22.732 195.48 23.044C194.952 23.344 194.532 23.776 194.22 24.34C193.92 24.904 193.77 25.546 193.77 26.266C193.77 26.986 193.92 27.628 194.22 28.192C194.532 28.756 194.952 29.194 195.48 29.506C196.02 29.806 196.626 29.956 197.298 29.956ZM208.94 21.46C210.176 21.46 211.124 21.772 211.784 22.396C212.444 23.008 212.774 23.92 212.774 25.132V31H211.55V29.524C211.262 30.016 210.836 30.4 210.272 30.676C209.72 30.952 209.06 31.09 208.292 31.09C207.236 31.09 206.396 30.838 205.772 30.334C205.148 29.83 204.836 29.164 204.836 28.336C204.836 27.532 205.124 26.884 205.7 26.392C206.288 25.9 207.218 25.654 208.49 25.654H211.496V25.078C211.496 24.262 211.268 23.644 210.812 23.224C210.356 22.792 209.69 22.576 208.814 22.576C208.214 22.576 207.638 22.678 207.086 22.882C206.534 23.074 206.06 23.344 205.664 23.692L205.088 22.738C205.568 22.33 206.144 22.018 206.816 21.802C207.488 21.574 208.196 21.46 208.94 21.46ZM208.49 30.082C209.21 30.082 209.828 29.92 210.344 29.596C210.86 29.26 211.244 28.78 211.496 28.156V26.608H208.526C206.906 26.608 206.096 27.172 206.096 28.3C206.096 28.852 206.306 29.29 206.726 29.614C207.146 29.926 207.734 30.082 208.49 30.082ZM217.469 23.386C217.769 22.75 218.213 22.27 218.801 21.946C219.401 21.622 220.139 21.46 221.015 21.46V22.702L220.709 22.684C219.713 22.684 218.933 22.99 218.369 23.602C217.805 24.214 217.523 25.072 217.523 26.176V31H216.245V21.532H217.469V23.386Z" fill="white"/>
</svg>
