<svg width="34" height="34" viewBox="0 0 34 34" fill="none" xmlns="http://www.w3.org/2000/svg">
<circle cx="17" cy="17" r="17" fill="#BC3B3B"/>
<path opacity="0.8" d="M26 11H21V9.33001C20.9765 8.68982 20.7002 8.08506 20.2316 7.6483C19.7629 7.21153 19.1402 6.9784 18.5 7.00001H15.5C14.8598 6.9784 14.2371 7.21153 13.7684 7.6483C13.2998 8.08506 13.0235 8.68982 13 9.33001V11H8C7.73478 11 7.48043 11.1054 7.29289 11.2929C7.10536 11.4804 7 11.7348 7 12C7 12.2652 7.10536 12.5196 7.29289 12.7071C7.48043 12.8946 7.73478 13 8 13H9V24C9 24.7957 9.31607 25.5587 9.87868 26.1213C10.4413 26.6839 11.2044 27 12 27H22C22.7956 27 23.5587 26.6839 24.1213 26.1213C24.6839 25.5587 25 24.7957 25 24V13H26C26.2652 13 26.5196 12.8946 26.7071 12.7071C26.8946 12.5196 27 12.2652 27 12C27 11.7348 26.8946 11.4804 26.7071 11.2929C26.5196 11.1054 26.2652 11 26 11ZM15 21C15 21.2652 14.8946 21.5196 14.7071 21.7071C14.5196 21.8946 14.2652 22 14 22C13.7348 22 13.4804 21.8946 13.2929 21.7071C13.1054 21.5196 13 21.2652 13 21V17C13 16.7348 13.1054 16.4804 13.2929 16.2929C13.4804 16.1054 13.7348 16 14 16C14.2652 16 14.5196 16.1054 14.7071 16.2929C14.8946 16.4804 15 16.7348 15 17V21ZM15 9.33001C15 9.17001 15.21 9.00001 15.5 9.00001H18.5C18.79 9.00001 19 9.17001 19 9.33001V11H15V9.33001ZM21 21C21 21.2652 20.8946 21.5196 20.7071 21.7071C20.5196 21.8946 20.2652 22 20 22C19.7348 22 19.4804 21.8946 19.2929 21.7071C19.1054 21.5196 19 21.2652 19 21V17C19 16.7348 19.1054 16.4804 19.2929 16.2929C19.4804 16.1054 19.7348 16 20 16C20.2652 16 20.5196 16.1054 20.7071 16.2929C20.8946 16.4804 21 16.7348 21 17V21Z" fill="white"/>
</svg>
