<svg width="360" height="50" viewBox="0 0 360 50" fill="none" xmlns="http://www.w3.org/2000/svg">
<rect width="360" height="50" rx="25" fill="#58C084"/>
<path d="M152.138 18.4V31H150.86V20.92L145.91 29.398H145.28L140.33 20.974V31H139.052V18.4H140.15L145.622 27.742L151.04 18.4H152.138ZM159.843 31.09C158.931 31.09 158.109 30.886 157.377 30.478C156.645 30.058 156.069 29.482 155.649 28.75C155.229 28.018 155.019 27.19 155.019 26.266C155.019 25.342 155.229 24.514 155.649 23.782C156.069 23.05 156.645 22.48 157.377 22.072C158.109 21.664 158.931 21.46 159.843 21.46C160.755 21.46 161.577 21.664 162.309 22.072C163.041 22.48 163.611 23.05 164.019 23.782C164.439 24.514 164.649 25.342 164.649 26.266C164.649 27.19 164.439 28.018 164.019 28.75C163.611 29.482 163.041 30.058 162.309 30.478C161.577 30.886 160.755 31.09 159.843 31.09ZM159.843 29.956C160.515 29.956 161.115 29.806 161.643 29.506C162.183 29.194 162.603 28.756 162.903 28.192C163.203 27.628 163.353 26.986 163.353 26.266C163.353 25.546 163.203 24.904 162.903 24.34C162.603 23.776 162.183 23.344 161.643 23.044C161.115 22.732 160.515 22.576 159.843 22.576C159.171 22.576 158.565 22.732 158.025 23.044C157.497 23.344 157.077 23.776 156.765 24.34C156.465 24.904 156.315 25.546 156.315 26.266C156.315 26.986 156.465 27.628 156.765 28.192C157.077 28.756 157.497 29.194 158.025 29.506C158.565 29.806 159.171 29.956 159.843 29.956ZM175.899 17.644V31H174.675V29.128C174.291 29.764 173.781 30.25 173.145 30.586C172.521 30.922 171.813 31.09 171.021 31.09C170.133 31.09 169.329 30.886 168.609 30.478C167.889 30.07 167.325 29.5 166.917 28.768C166.509 28.036 166.305 27.202 166.305 26.266C166.305 25.33 166.509 24.496 166.917 23.764C167.325 23.032 167.889 22.468 168.609 22.072C169.329 21.664 170.133 21.46 171.021 21.46C171.789 21.46 172.479 21.622 173.091 21.946C173.715 22.258 174.225 22.72 174.621 23.332V17.644H175.899ZM171.129 29.956C171.789 29.956 172.383 29.806 172.911 29.506C173.451 29.194 173.871 28.756 174.171 28.192C174.483 27.628 174.639 26.986 174.639 26.266C174.639 25.546 174.483 24.904 174.171 24.34C173.871 23.776 173.451 23.344 172.911 23.044C172.383 22.732 171.789 22.576 171.129 22.576C170.457 22.576 169.851 22.732 169.311 23.044C168.783 23.344 168.363 23.776 168.051 24.34C167.751 24.904 167.601 25.546 167.601 26.266C167.601 26.986 167.751 27.628 168.051 28.192C168.363 28.756 168.783 29.194 169.311 29.506C169.851 29.806 170.457 29.956 171.129 29.956ZM179.458 21.532H180.736V31H179.458V21.532ZM180.106 19.462C179.842 19.462 179.62 19.372 179.44 19.192C179.26 19.012 179.17 18.796 179.17 18.544C179.17 18.304 179.26 18.094 179.44 17.914C179.62 17.734 179.842 17.644 180.106 17.644C180.37 17.644 180.592 17.734 180.772 17.914C180.952 18.082 181.042 18.286 181.042 18.526C181.042 18.79 180.952 19.012 180.772 19.192C180.592 19.372 180.37 19.462 180.106 19.462ZM187.424 18.634C186.872 18.634 186.452 18.784 186.164 19.084C185.888 19.384 185.75 19.828 185.75 20.416V21.532H188.666V22.612H185.786V31H184.508V22.612H182.816V21.532H184.508V20.362C184.508 19.498 184.754 18.814 185.246 18.31C185.75 17.806 186.458 17.554 187.37 17.554C187.73 17.554 188.078 17.608 188.414 17.716C188.75 17.812 189.032 17.956 189.26 18.148L188.828 19.102C188.456 18.79 187.988 18.634 187.424 18.634ZM191.834 21.532H193.112V31H191.834V21.532ZM192.482 19.462C192.218 19.462 191.996 19.372 191.816 19.192C191.636 19.012 191.546 18.796 191.546 18.544C191.546 18.304 191.636 18.094 191.816 17.914C191.996 17.734 192.218 17.644 192.482 17.644C192.746 17.644 192.968 17.734 193.148 17.914C193.328 18.082 193.418 18.286 193.418 18.526C193.418 18.79 193.328 19.012 193.148 19.192C192.968 19.372 192.746 19.462 192.482 19.462ZM200.608 31.09C199.672 31.09 198.832 30.886 198.088 30.478C197.356 30.07 196.78 29.5 196.36 28.768C195.94 28.024 195.73 27.19 195.73 26.266C195.73 25.342 195.94 24.514 196.36 23.782C196.78 23.05 197.356 22.48 198.088 22.072C198.832 21.664 199.672 21.46 200.608 21.46C201.424 21.46 202.15 21.622 202.786 21.946C203.434 22.258 203.944 22.72 204.316 23.332L203.362 23.98C203.05 23.512 202.654 23.164 202.174 22.936C201.694 22.696 201.172 22.576 200.608 22.576C199.924 22.576 199.306 22.732 198.754 23.044C198.214 23.344 197.788 23.776 197.476 24.34C197.176 24.904 197.026 25.546 197.026 26.266C197.026 26.998 197.176 27.646 197.476 28.21C197.788 28.762 198.214 29.194 198.754 29.506C199.306 29.806 199.924 29.956 200.608 29.956C201.172 29.956 201.694 29.842 202.174 29.614C202.654 29.386 203.05 29.038 203.362 28.57L204.316 29.218C203.944 29.83 203.434 30.298 202.786 30.622C202.138 30.934 201.412 31.09 200.608 31.09ZM210.139 21.46C211.375 21.46 212.323 21.772 212.983 22.396C213.643 23.008 213.973 23.92 213.973 25.132V31H212.749V29.524C212.461 30.016 212.035 30.4 211.471 30.676C210.919 30.952 210.259 31.09 209.491 31.09C208.435 31.09 207.595 30.838 206.971 30.334C206.347 29.83 206.035 29.164 206.035 28.336C206.035 27.532 206.323 26.884 206.899 26.392C207.487 25.9 208.417 25.654 209.689 25.654H212.695V25.078C212.695 24.262 212.467 23.644 212.011 23.224C211.555 22.792 210.889 22.576 210.013 22.576C209.413 22.576 208.837 22.678 208.285 22.882C207.733 23.074 207.259 23.344 206.863 23.692L206.287 22.738C206.767 22.33 207.343 22.018 208.015 21.802C208.687 21.574 209.395 21.46 210.139 21.46ZM209.689 30.082C210.409 30.082 211.027 29.92 211.543 29.596C212.059 29.26 212.443 28.78 212.695 28.156V26.608H209.725C208.105 26.608 207.295 27.172 207.295 28.3C207.295 28.852 207.505 29.29 207.925 29.614C208.345 29.926 208.933 30.082 209.689 30.082ZM218.668 23.386C218.968 22.75 219.412 22.27 220 21.946C220.6 21.622 221.338 21.46 222.214 21.46V22.702L221.908 22.684C220.912 22.684 220.132 22.99 219.568 23.602C219.004 24.214 218.722 25.072 218.722 26.176V31H217.444V21.532H218.668V23.386Z" fill="white"/>
</svg>
