<svg width="34" height="34" viewBox="0 0 34 34" fill="none" xmlns="http://www.w3.org/2000/svg">
<circle cx="17" cy="17" r="17" fill="#2C4674"/>
<path opacity="0.8" d="M24.4042 11.2822L21.6642 8.54224C21.3066 8.20634 20.838 8.0136 20.3475 8.00069C19.8571 7.98779 19.379 8.15561 19.0042 8.47224L10.0042 17.4722C9.68097 17.7982 9.47971 18.2254 9.4342 18.6822L9.0042 22.8522C8.99073 22.9987 9.00974 23.1463 9.05986 23.2846C9.10999 23.4229 9.19001 23.5484 9.2942 23.6522C9.38764 23.7449 9.49846 23.8182 9.6203 23.868C9.74213 23.9178 9.8726 23.943 10.0042 23.9422H10.0942L14.2642 23.5622C14.721 23.5167 15.1482 23.3155 15.4742 22.9922L24.4742 13.9922C24.8235 13.6232 25.0123 13.1307 24.9992 12.6228C24.9861 12.1148 24.7721 11.6327 24.4042 11.2822ZM21.0042 14.6222L18.3242 11.9422L20.2742 9.94224L23.0042 12.6722L21.0042 14.6222Z" fill="white"/>
</svg>
