<svg width="150" height="150" viewBox="0 0 150 150" fill="none" xmlns="http://www.w3.org/2000/svg">
<circle cx="75" cy="75" r="73" fill="white" stroke="#8090AC" stroke-width="4"/>
<g opacity="0.6">
<path d="M75.5 88.7C82.7901 88.7 88.7 82.7902 88.7 75.5C88.7 68.2098 82.7901 62.3 75.5 62.3C68.2098 62.3 62.3 68.2098 62.3 75.5C62.3 82.7902 68.2098 88.7 75.5 88.7Z" fill="#2C4674"/>
<path d="M63.125 34.25L55.5763 42.5H42.5C37.9625 42.5 34.25 46.2125 34.25 50.75V100.25C34.25 104.787 37.9625 108.5 42.5 108.5H108.5C113.037 108.5 116.75 104.787 116.75 100.25V50.75C116.75 46.2125 113.037 42.5 108.5 42.5H95.4237L87.875 34.25H63.125ZM75.5 96.125C64.115 96.125 54.875 86.885 54.875 75.5C54.875 64.115 64.115 54.875 75.5 54.875C86.885 54.875 96.125 64.115 96.125 75.5C96.125 86.885 86.885 96.125 75.5 96.125Z" fill="#2C4674"/>
</g>
</svg>
